# Blender v2.68 (sub 0) OBJ File: ''
# www.blender.org
mtllib test.mtl
o Cube.001_Cube
v 1.000000 0.464867 -1.000000
v 1.000000 0.464867 1.000000
v -1.000000 0.464867 1.000000
v -1.000000 0.464867 -1.000000
v 1.000000 1.000000 -0.999999
v 0.999999 1.000000 1.000001
v -1.000000 1.000000 1.000000
v -1.000000 1.000000 -1.000000
v 0.353553 1.503059 -0.353553
v 0.353553 1.503059 0.353554
v -0.353554 1.503059 0.353553
v -0.353553 1.503059 -0.353553
v 0.353553 4.998743 -0.353553
v 0.353553 4.998743 0.353554
v -0.353554 4.998743 0.353553
v -0.353554 4.998743 -0.353553
v 1.000000 6.036030 1.000000
v 1.000000 6.036030 -1.000000
v -1.000000 6.036030 -1.000000
v -1.000000 6.036030 1.000001
v 1.000000 5.500897 1.000000
v 0.999999 5.500897 -1.000000
v -1.000000 5.500897 -1.000000
v -1.000000 5.500897 1.000000
vn 0.000000 -1.000000 0.000000
vn -0.000000 0.789194 0.614144
vn 1.000000 -0.000001 0.000000
vn -0.000000 -0.000001 1.000000
vn -1.000000 -0.000000 -0.000000
vn 0.000000 0.000001 -1.000000
vn -0.000001 0.000000 1.000000
vn -0.614144 0.789194 -0.000000
vn 0.614144 0.789194 0.000000
vn 0.000000 0.789194 -0.614144
vn 1.000000 -0.000000 0.000001
vn 0.000000 -0.000000 -1.000000
vn -0.000000 1.000000 0.000000
vn 0.613455 -0.789729 -0.000000
vn 1.000000 0.000001 -0.000001
vn 0.000000 -0.789729 0.613455
vn -0.000000 -0.789729 -0.613455
vn -0.613455 -0.789729 0.000000
vn 1.000000 0.000001 0.000001
vn -0.000000 0.000000 1.000000
vn -1.000000 -0.000001 -0.000000
vn 1.000000 0.000000 0.000000
vn 0.613455 -0.789730 0.000000
vn -1.000000 0.000001 0.000000
vn -0.000000 -0.789730 0.613455
vn -0.000000 -0.789730 -0.613455
vn -0.613455 -0.789730 -0.000000
usemtl Material
s off
f 1//1 2//1 4//1
f 7//2 6//2 11//2
f 1//3 5//3 2//3
f 2//4 6//4 3//4
f 3//5 7//5 4//5
f 5//6 1//6 8//6
f 11//7 10//7 15//7
f 8//8 7//8 12//8
f 6//9 5//9 10//9
f 5//10 8//10 9//10
f 12//5 11//5 16//5
f 10//11 9//11 14//11
f 9//12 12//12 13//12
f 17//13 18//13 20//13
f 22//14 21//14 13//14
f 17//15 21//15 22//15
f 18//6 22//6 19//6
f 19//5 23//5 20//5
f 21//4 17//4 24//4
f 21//16 24//16 14//16
f 23//17 22//17 16//17
f 24//18 23//18 15//18
f 2//1 3//1 4//1
f 6//2 10//2 11//2
f 5//19 6//19 2//19
f 6//20 7//20 3//20
f 7//21 8//21 4//21
f 1//6 4//6 8//6
f 10//20 14//20 15//20
f 7//8 11//8 12//8
f 5//9 9//9 10//9
f 8//10 12//10 9//10
f 11//5 15//5 16//5
f 9//22 13//22 14//22
f 12//12 16//12 13//12
f 18//13 19//13 20//13
f 21//23 14//23 13//23
f 18//3 17//3 22//3
f 22//12 23//12 19//12
f 23//24 24//24 20//24
f 17//4 20//4 24//4
f 24//25 15//25 14//25
f 22//26 13//26 16//26
f 23//27 16//27 15//27
